<svg xmlns="http://www.w3.org/2000/svg" xmlns:xlink="http://www.w3.org/1999/xlink" xmlns:inkscape="http://www.inkscape.org/namespaces/inkscape" version="1.1" width="375" height="375" viewBox="0 0 375 375">
<defs>
<clipPath id="clip_0">
<path transform="matrix(.24,0,0,.24,0,0)" d="M0 0H1562.5V1562.5H0Z" clip-rule="evenodd"/>
</clipPath>
<clipPath id="clip_1">
<path transform="matrix(.24,0,0,.24,0,0)" d="M0 0H1562.5V1593.75H0Z"/>
</clipPath>
<clipPath id="clip_2">
<path transform="matrix(.24,0,0,.24,0,0)" d="M0 0H1562.5V1562.5H0Z"/>
</clipPath>
<clipPath id="clip_3">
<path transform="matrix(.24,0,0,.24,0,0)" d="M0 0H1562.5V1562.5H0Z"/>
</clipPath>
<clipPath id="clip_4">
<path transform="matrix(.24,0,0,.24,0,0)" d="M311.54759 312.48649H1252.1726V1253.1115H311.54759Z"/>
</clipPath>
<clipPath id="clip_5">
<path transform="matrix(.24,0,0,.24,0,0)" d="M311.54759 312.48649H1250.9519V1251.8908H311.54759Z"/>
</clipPath>
<clipPath id="clip_6">
<path transform="matrix(.24,0,0,.24,0,0)" d="M781.24978 312.48649C521.8404 312.48649 311.54759 522.7793 311.54759 782.1886 311.54759 1041.5979 521.8404 1251.8908 781.24978 1251.8908 1040.659 1251.8908 1250.9519 1041.5979 1250.9519 782.1886 1250.9519 522.7793 1040.659 312.48649 781.24978 312.48649Z"/>
</clipPath>
<clipPath id="clip_7">
<path transform="matrix(.24,0,0,.24,0,0)" d="M573.86367 468.75H989.48867V1093.75H573.86367Z" clip-rule="evenodd"/>
</clipPath>
<clipPath id="clip_8">
<path transform="matrix(.24,0,0,.24,0,0)" d="M574.4351 468.75H988.8805V776.6584H574.4351Z" clip-rule="evenodd"/>
</clipPath>
<clipPath id="clip_9">
<path transform="matrix(.24,0,0,.24,0,0)" d="M680.89767 601.9969H807.2091V1093.7106H680.89767Z" clip-rule="evenodd"/>
</clipPath>
<clipPath id="clip_10">
<path transform="matrix(.24,0,0,.24,0,0)" d="M624.0255 468.75H988.4034V737.5H624.0255Z" clip-rule="evenodd"/>
</clipPath>
<clipPath id="clip_11">
<path transform="matrix(.24,0,0,.24,0,0)" d="M624.0255 468.75H988.0099V737.5H624.0255Z" clip-rule="evenodd"/>
</clipPath>
<clipPath id="clip_12">
<path transform="matrix(.24,0,0,.24,0,0)" d="M693.78787 596.3131H814.4557V737.5H693.78787Z" clip-rule="evenodd"/>
</clipPath>
<clipPath id="clip_13">
<path transform="matrix(.24,0,0,.24,0,0)" d="M0 0H1562.5V1562.5H0Z" clip-rule="evenodd"/>
</clipPath>
</defs>
<g clip-path="url(#clip_0)">
<path transform="matrix(.75,0,0,.75,0,0)" d="M0 0H500V500H0Z" fill="#ffffff"/>
</g>
<g clip-path="url(#clip_1)">
<g clip-path="url(#clip_2)">
<g clip-path="url(#clip_3)">
<g clip-path="url(#clip_4)">
<g clip-path="url(#clip_5)">
<g clip-path="url(#clip_6)">
<path transform="matrix(.75,0,0,.75,74.771419,74.99676)" stroke-width="56" stroke-linecap="butt" stroke-miterlimit="4" stroke-linejoin="miter" fill="none" stroke="#222222" d="M150.30469 0C67.2937 0 0 67.2937 0 150.30469 0 233.31568 67.2937 300.60939 150.30469 300.60939 233.31568 300.60939 300.60939 233.31568 300.60939 150.30469 300.60939 67.2937 233.31568 0 150.30469 0Z"/>
</g>
</g>
</g>
</g>
</g>
</g>
<g clip-path="url(#clip_7)">
<path transform="matrix(.4330679,0,0,.4321521,137.86443,112.5)" d="M136.73047 74.5C136.73047 80.546878 131.82813 85.44531 125.78516 85.44531 119.74219 85.44531 114.83984 80.546878 114.83984 74.5 114.83984 68.45703 119.74219 63.558595 125.78516 63.558595 131.82813 63.558595 136.73047 68.45703 136.73047 74.5" fill="#231f20"/>
</g>
<g clip-path="url(#clip_8)">
<path transform="matrix(.4330679,0,0,.4321521,137.86443,112.5)" d="M128.6211 69.83203C128.6211 69.83203 137.16016 100.63672 117.21875 123.875 117.21875 123.875 137.8086 114.14844 143.21485 96.85547 143.21485 96.85547 165.91016 129.28125 149.69922 170.89453 149.69922 170.89453 189.14844 137.92578 168.07422 91.44922 168.07422 91.44922 207.52344 118.47266 206.98438 157.92188 206.98438 157.92188 235.6289 89.28906 151.32032 60.10547 151.32032 60.10547 202.1211 66.05078 229.6836 95.77344 229.6836 95.77344 211.3086 42.8125 157.26563 43.890626 157.26563 43.890626 171.3164 28.761719 190.23047 29.839844 190.23047 29.839844 160.50782 21.734375 140.51172 41.191408 140.51172 41.191408 125.37891-16.09375 47.558595 4.441406 47.558595 4.441406 104.16797 15.640625 117.21875 48.214845 117.21875 48.214845 38.910158 .117188 16.753907 61.1875 16.753907 61.1875 49.179689 42.8125 90.25391 55.78125 90.25391 55.78125 20.535157 61.726564 0 115.76953 0 115.76953 21.890625 96.90625 55.39453 90.91016 90.11719 84.69531 121.59766 68.21094 121.59766 68.21094L128.6211 69.83203" fill="#231f20"/>
</g>
<g clip-path="url(#clip_9)">
<path transform="matrix(.4330679,0,0,.4321521,137.86443,112.5)" d="M128.57422 76.75C127.40625 77.98828 126.22656 79.26172 125.05469 80.578128 123.89453 81.87891 122.74609 83.23047 121.59766 84.609378 117.42578 89.62891 113.296878 95.19922 109.34766 101.23828 104.375 108.98047 99.625 117.44922 95.52734 126.578128 91.36719 135.67969 87.796878 145.39844 84.85547 155.4414 83.40625 160.46875 82.125 165.58985 80.99609 170.75 80.47656 173.33985 79.91406 175.9414 79.484378 178.5 79.25781 179.78907 79.015628 181.05078 78.81641 182.42188L78.20703 186.3711C76.77734 196.91016 75.92578 207.5 75.56641 217.9414 75.34766 228.41016 75.52734 238.71094 76.11719 248.66797 76.796878 258.6289 77.63672 268.25 78.84766 277.35157 79.36719 281.89845 80.06641 286.32814 80.66406 290.60157 81.30469 294.8789 82.00781 299.01173 82.63672 302.96876 83.34766 306.9297 84.02734 310.73048 84.66406 314.33985 85.36719 317.94923 86.015628 321.3711 86.63672 324.57814 87.92578 331.01954 89.06641 336.6211 90.05469 341.21876 90.52734 343.39845 90.94531 345.35939 91.328128 347.07814H66.734378C66.65625 346.51954 66.578128 345.94923 66.49609 345.3711 65.828128 340.60157 65.06641 334.8086 64.22656 328.16798 63.835939 324.83985 63.414064 321.28907 62.976564 317.5586 62.578126 313.8086 62.164064 309.8711 61.726564 305.75 61.367189 301.6211 60.95703 297.32814 60.617189 292.8711 60.316408 288.41017 59.914064 283.8086 59.714845 279.05079 59.148439 269.55079 58.984376 259.48048 59.035158 249.07032 59.164064 238.64844 59.746095 227.8789 60.765626 216.96875 61.92578 206.07032 63.617189 195.05078 65.90625 184.16016L66.828128 180.10938C67.11719 178.80078 67.47656 177.41016 67.828128 176.05078 68.49609 173.28907 69.265628 170.6289 70.015628 167.96094 71.59766 162.64063 73.30469 157.3789 75.20703 152.25 79.02734 141.98828 83.46484 132.17188 88.44531 123.05078 93.375 113.89844 98.91406 105.5 104.60547 97.89844 108.97656 92.16016 113.484378 86.89844 117.984378 82.17969 119.40625 80.69141 120.81641 79.26172 122.234378 77.87891 123.265628 76.87109 124.296878 75.89844 125.31641 74.96094 126.35547 75.671878 127.44531 76.25 128.57422 76.75" fill="#231f20"/>
</g>
<g clip-path="url(#clip_10)">
<path transform="matrix(.41371814,0,0,.41371814,142.09972,112.5)" d="M136.73047 74.5C136.73047 80.546878 131.82813 85.44531 125.78516 85.44531 119.74219 85.44531 114.83984 80.546878 114.83984 74.5 114.83984 68.45703 119.74219 63.558595 125.78516 63.558595 131.82813 63.558595 136.73047 68.45703 136.73047 74.5" fill="#36cf65"/>
</g>
<g clip-path="url(#clip_11)">
<path transform="matrix(.41371814,0,0,.41371814,142.09972,112.5)" d="M128.6211 69.83203C128.6211 69.83203 137.16016 100.63672 117.21875 123.875 117.21875 123.875 137.8086 114.14844 143.21485 96.85547 143.21485 96.85547 165.91016 129.28125 149.69922 170.89453 149.69922 170.89453 189.14844 137.92578 168.07422 91.44922 168.07422 91.44922 207.52344 118.47266 206.98438 157.92188 206.98438 157.92188 235.6289 89.28906 151.32032 60.10547 151.32032 60.10547 202.1211 66.05078 229.6836 95.77344 229.6836 95.77344 211.3086 42.8125 157.26563 43.890626 157.26563 43.890626 171.3164 28.761719 190.23047 29.839844 190.23047 29.839844 160.50782 21.734375 140.51172 41.191408 140.51172 41.191408 125.37891-16.09375 47.558595 4.441406 47.558595 4.441406 104.16797 15.640625 117.21875 48.214845 117.21875 48.214845 38.910158 .117188 16.753907 61.1875 16.753907 61.1875 49.179689 42.8125 90.25391 55.78125 90.25391 55.78125 20.535157 61.726564 0 115.76953 0 115.76953 21.890625 96.90625 55.39453 90.91016 90.11719 84.69531 121.59766 68.21094 121.59766 68.21094L128.6211 69.83203" fill="#36cf65"/>
</g>
<g clip-path="url(#clip_12)">
<path transform="matrix(.41371814,0,0,.41371814,142.09972,112.5)" d="M128.57422 76.75C127.40625 77.98828 126.22656 79.26172 125.05469 80.578128 123.89453 81.87891 122.74609 83.23047 121.59766 84.609378 117.42578 89.62891 113.296878 95.19922 109.34766 101.23828 104.375 108.98047 99.625 117.44922 95.52734 126.578128 91.36719 135.67969 87.796878 145.39844 84.85547 155.4414 83.40625 160.46875 82.125 165.58985 80.99609 170.75 80.47656 173.33985 79.91406 175.9414 79.484378 178.5 79.25781 179.78907 79.015628 181.05078 78.81641 182.42188L78.20703 186.3711C76.77734 196.91016 75.92578 207.5 75.56641 217.9414 75.34766 228.41016 75.52734 238.71094 76.11719 248.66797 76.796878 258.6289 77.63672 268.25 78.84766 277.35157 79.36719 281.89845 80.06641 286.32814 80.66406 290.60157 81.30469 294.8789 82.00781 299.01173 82.63672 302.96876 83.34766 306.9297 84.02734 310.73048 84.66406 314.33985 85.36719 317.94923 86.015628 321.3711 86.63672 324.57814 87.92578 331.01954 89.06641 336.6211 90.05469 341.21876 90.52734 343.39845 90.94531 345.35939 91.328128 347.07814H66.734378C66.65625 346.51954 66.578128 345.94923 66.49609 345.3711 65.828128 340.60157 65.06641 334.8086 64.22656 328.16798 63.835939 324.83985 63.414064 321.28907 62.976564 317.5586 62.578126 313.8086 62.164064 309.8711 61.726564 305.75 61.367189 301.6211 60.95703 297.32814 60.617189 292.8711 60.316408 288.41017 59.914064 283.8086 59.714845 279.05079 59.148439 269.55079 58.984376 259.48048 59.035158 249.07032 59.164064 238.64844 59.746095 227.8789 60.765626 216.96875 61.92578 206.07032 63.617189 195.05078 65.90625 184.16016L66.828128 180.10938C67.11719 178.80078 67.47656 177.41016 67.828128 176.05078 68.49609 173.28907 69.265628 170.6289 70.015628 167.96094 71.59766 162.64063 73.30469 157.3789 75.20703 152.25 79.02734 141.98828 83.46484 132.17188 88.44531 123.05078 93.375 113.89844 98.91406 105.5 104.60547 97.89844 108.97656 92.16016 113.484378 86.89844 117.984378 82.17969 119.40625 80.69141 120.81641 79.26172 122.234378 77.87891 123.265628 76.87109 124.296878 75.89844 125.31641 74.96094 126.35547 75.671878 127.44531 76.25 128.57422 76.75" fill="#36cf65"/>
</g>
<g clip-path="url(#clip_13)">
<path transform="matrix(.75,0,0,.75,149.76612,61.659025)" d="M-26.542065 8.3830599C-20.553765 5.4218137-14.414811 2.8154095-8.125204 .5638468-1.8355961-1.6877155 4.5627787-3.5694414 11.069921-5.081331 17.57706-6.5932199 24.149634-7.725203 30.787638-8.477282 37.42564-9.22936 44.084867-9.596523 50.765317-9.578774 57.44576-9.561024 64.102939-9.158478 70.736858-8.371137 77.37076-7.5837948 83.937229-6.4169 90.43625-4.870453 96.93526-3.324006 103.32354-1.4083064 109.601108 .87664726 115.878658 3.1616007 122.00368 5.80059 127.97616 8.793616L93.63622 77.31776C90.304279 75.647998 86.88724 74.17575 83.38509 72.901027 79.882968 71.62628 76.31906 70.55755 72.693378 69.69482 69.06769 68.83208 65.40437 68.18108 61.70343 67.74184 58.00249 67.30259 54.288568 67.07802 50.561666 67.06812 46.834756 67.05821 43.11969 67.26305 39.416467 67.68262 35.713247 68.10219 32.046525 68.7337 28.416308 69.57716 24.786087 70.420619 21.216547 71.4704 17.707688 72.72651 14.198826 73.98262 10.7740139 75.43668 7.4332487 77.088718L-26.542065 8.3830599Z" fill="#ffffff"/>
<text fill="#ff4848" xml:space="preserve" transform="matrix(.72216168 -.20244137 .20244137 .72216168 149.28032 67.57385)" font-size="47.9" font-family="Bangers"><tspan y="45" x="0">J</tspan></text>
<text fill="#ff4848" xml:space="preserve" transform="matrix(.74627098 -.07469757 .07469757 .74627098 170.04106 62.76991)" font-size="47.9" font-family="Bangers"><tspan y="45" x="0">J</tspan></text>
<text fill="#ff4848" xml:space="preserve" transform="matrix(.7486456 .04505354 -.04505354 .7486456 191.02127 61.662633)" font-size="47.9" font-family="Bangers"><tspan y="45" x="0">'</tspan></text>
<text fill="#ff4848" xml:space="preserve" transform="matrix(.7273028 .18311359 -.18311359 .7273028 209.77368 63.492357)" font-size="47.9" font-family="Bangers"><tspan y="45" x="0">s</tspan></text>
<path transform="matrix(.75,0,0,.75,79.80145,221.00757)" d="M296.30918 8.601784C295.11598 12.642849 293.7629 16.62967 292.25 20.562247 290.73713 24.494824 289.06929 28.360537 287.24644 32.159387 285.42359 35.958234 283.4516 39.67802 281.3305 43.318758 279.20939 46.95949 276.94599 50.509489 274.54026 53.968744 272.13453 57.427999 269.59419 60.785409 266.91926 64.04098 264.24436 67.296558 261.44343 70.439838 258.51646 73.47083 255.58951 76.50182 252.54593 79.410808 249.38573 82.19777 246.22554 84.98472 242.95886 87.64072 239.58571 90.16576 236.21256 92.69079 232.74373 95.07676 229.17926 97.32366 225.6148 99.57057 221.96614 101.6712 218.23325 103.62556 214.50034 105.57992 210.6952 107.38173 206.81786 109.03099 202.94048 110.68026 199.00331 112.17168 195.00638 113.50526 191.00943 114.83884 186.96553 116.01029 182.87467 117.01963 178.7838 118.02898 174.6591 118.872959 170.50055 119.55158 166.342 120.23021 162.16297 120.74129 157.96346 121.08483 153.76393 121.42839 149.5574 121.6033 145.34387 121.609569 141.13033 121.61583 136.9233 121.45344 132.72277 121.12238 128.52225 120.791339 124.34171 120.29269 120.18117 119.626438 116.02062 118.96018 111.893428 118.12848 107.79957 117.13132 103.70572 116.13415 99.65834 114.97472 95.65745 113.65304 91.656558 112.33135 87.71499 110.851657 83.83275 109.213939 79.95049 107.57622 76.14002 105.78574 72.40133 103.8425 68.66264 101.899257 65.00773 99.80949 61.4366 97.57318 57.86547 95.33689 54.38958 92.96125 51.008928 90.44626 47.628274 87.93127 44.353708 85.284999 41.18523 82.507457 38.016759 79.729907 34.964544 76.829998 32.02858 73.807727 29.09262 70.785449 26.282341 67.650508 23.59774 64.4029 20.913138 61.1553 18.36283 57.80546 15.946819 54.35338 13.5308079 50.901296 11.256845 47.358049 9.124931 43.723638 6.993017 40.089227 5.0099947 36.375318 3.1758617 32.58191 1.3417287 28.788498-.3376273 24.927762-1.8622067 20.9997-3.386786 17.07164-4.7516958 13.0888609-5.9569365 9.051361L40.69201-4.873874C41.525075-2.083147 42.4685 .6697581 43.52229 3.3848413 44.57608 6.099924 45.736856 8.768472 47.00461 11.390485 48.272367 14.012496 49.643033 16.579558 51.116617 19.09167 52.5902 21.603783 54.16197 24.052884 55.831918 26.43897 57.50187 28.825058 59.264646 31.140479 61.120244 33.385229 62.975847 35.629976 64.91832 37.796854 66.94766 39.885854 68.977008 41.974855 71.0867 43.97928 73.27676 45.89912 75.46681 47.818964 77.7302 49.64807 80.06692 51.38644 82.403629 53.12481 84.80617 54.766859 87.27454 56.312589 89.74292 57.858324 92.2692 59.302778 94.85339 60.64595 97.437587 61.98912 100.07139 63.226705 102.75481 64.3587 105.438228 65.4907 108.16264 66.51347 110.92806 67.427028 113.6935 68.340579 116.49105 69.14197 119.320728 69.831218 122.150409 70.52046 125.003139 71.09534 127.878917 71.555858 130.7547 72.016368 133.64429 72.36103 136.5477 72.58986 139.45111 72.81869 142.35903 72.93093 145.27144 72.9266 148.18386 72.922267 151.09142 72.80137 153.99414 72.56391 156.89685 72.326457 159.7854 71.97319 162.65979 71.50412 165.5342 71.03506 168.38521 70.45169 171.21283 69.754039 174.04045 69.056369 176.8356 68.24665 179.59828 67.32488 182.36096 66.40311 185.08234 65.37224 187.76238 64.23226 190.44242 63.09229 193.07253 61.846879 195.65271 60.496026 198.23291 59.145174 200.7549 57.69321 203.21866 56.140146 205.68242 54.58708 208.08007 52.93789 210.41159 51.192579 212.74312 49.447267 215.00106 47.611436 217.1854 45.685087 219.36974 43.75873 221.47347 41.74804 223.49658 39.65301 225.5197 37.557985 227.4557 35.385339 229.30461 33.13508 231.15354 30.884819 232.90941 28.564167 234.57227 26.17312 236.23513 23.782076 237.79959 21.328312 239.2657 18.811827 240.73181 16.295344 242.09484 13.724215 243.3548 11.098441 244.61475 8.472669 245.76758 5.80068 246.81331 3.082475 247.85901 .36426903 248.79425-2.39143 249.619-5.184623L296.30918 8.601784Z" fill="#ffffff"/>
<text fill="#ff4848" xml:space="preserve" transform="matrix(.3277766 .67458316 -.67458316 .3277766 108.513858 219.675)" font-size="35.59" font-family="TANNIMBUS"><tspan y="33" x="0">R</tspan></text>
<text fill="#ff4848" xml:space="preserve" transform="matrix(.49144907 .566549 -.566549 .49144907 118.38096 239.51883)" font-size="35.59" font-family="TANNIMBUS"><tspan y="33" x="0">o</tspan></text>
<text fill="#ff4848" xml:space="preserve" transform="matrix(.60142317 .44809623 -.44809623 .60142317 133.81496 256.19767)" font-size="35.59" font-family="TANNIMBUS"><tspan y="33" x="0">t</tspan></text>
<text fill="#ff4848" xml:space="preserve" transform="matrix(.6651842 .3464534 -.3464534 .6651842 145.58554 264.56645)" font-size="35.59" font-family="TANNIMBUS"><tspan y="33" x="0">i</tspan></text>
<text fill="#ff4848" xml:space="preserve" transform="matrix(.7094586 .24324565 -.24324565 .7094586 156.90042 270.185)" font-size="35.59" font-family="TANNIMBUS"><tspan y="33" x="0"> </tspan></text>
<text fill="#ff4848" xml:space="preserve" transform="matrix(.74419388 .09314264 -.09314264 .74419388 167.90308 274.3093)" font-size="35.59" font-family="TANNIMBUS"><tspan y="33" x="0">D</tspan></text>
<text fill="#ff4848" xml:space="preserve" transform="matrix(.7440185 -.09453279 .09453279 .7440185 190.02948 276.7262)" font-size="35.59" font-family="TANNIMBUS"><tspan y="33" x="0">e</tspan></text>
<text fill="#ff4848" xml:space="preserve" transform="matrix(.7114467 -.23736795 .23736795 .7114467 210.59667 273.4354)" font-size="35.59" font-family="TANNIMBUS"><tspan y="33" x="0">l</tspan></text>
<text fill="#ff4848" xml:space="preserve" transform="matrix(.6676633 -.34165136 .34165136 .6676633 222.61038 269.16618)" font-size="35.59" font-family="TANNIMBUS"><tspan y="33" x="0">i</tspan></text>
<text fill="#ff4848" xml:space="preserve" transform="matrix(.58218869 -.47281743 .47281743 .58218869 233.26522 264.12898)" font-size="35.59" font-family="TANNIMBUS"><tspan y="33" x="0">g</tspan></text>
<text fill="#ff4848" xml:space="preserve" transform="matrix(.43752117 -.6091594 .6091594 .43752117 250.69913 249.68642)" font-size="35.59" font-family="TANNIMBUS"><tspan y="33" x="0">h</tspan></text>
<text fill="#ff4848" xml:space="preserve" transform="matrix(.29620106 -.6890319 .6890319 .29620106 263.44834 230.66886)" font-size="35.59" font-family="TANNIMBUS"><tspan y="33" x="0">t</tspan></text>
</g>
</svg>
