<svg version="1.1" id="Layer_1" xmlns="http://www.w3.org/2000/svg" xmlns:xlink="http://www.w3.org/1999/xlink" x="0px" y="0px"
	 width="100%" viewBox="0 0 1024 1024" enable-background="new 0 0 1024 1024" xml:space="preserve">
<path fill="#000000" opacity="1.000000" stroke="none" 
	d="
M480.798584,456.923523 
	C490.036011,439.935364 499.889343,423.833435 513.297791,410.185638 
	C516.133423,407.299377 516.154968,398.911469 513.654175,395.806061 
	C511.885529,393.609833 510.056000,394.951691 508.273834,395.711853 
	C492.632721,402.383209 476.684784,408.151947 460.214539,412.461487 
	C448.787811,415.451416 436.995697,416.870331 425.727936,420.500549 
	C410.897034,425.278717 396.940460,431.878448 384.080292,440.737946 
	C382.811310,441.612152 381.689545,443.185883 379.212067,442.218506 
	C380.382538,437.170441 383.222992,432.976074 385.998688,428.779480 
	C401.332245,405.596436 423.521576,391.904083 449.018158,382.304565 
	C457.784729,379.003937 466.921021,376.976135 476.992981,373.317169 
	C467.480286,369.646149 458.788483,369.799042 450.212524,369.365570 
	C441.335785,368.916931 432.556305,369.959991 423.998871,372.240875 
	C415.594208,374.480957 407.316071,377.195953 399.047852,379.682892 
	C398.721466,379.083282 398.365570,378.720490 398.441406,378.527252 
	C404.891907,362.095856 415.944580,350.475433 433.427643,346.064484 
	C443.040375,343.639160 452.996887,342.141357 462.833954,342.794708 
	C477.367462,343.759949 491.507111,347.106628 504.450378,354.289337 
	C505.728271,354.998505 506.872101,356.131165 508.816956,355.309265 
	C509.075806,352.704468 507.160492,351.214722 505.588531,349.641022 
	C492.104889,336.142365 475.635925,327.651184 457.917633,321.236633 
	C455.520813,320.368896 452.698853,320.158966 451.070618,317.879669 
	C451.635498,315.889313 453.223358,315.398560 454.589539,315.121399 
	C464.936035,313.022064 474.991882,308.645752 485.568115,308.730164 
	C507.475555,308.904968 525.238708,318.230042 538.616211,335.653076 
	C541.457092,339.353088 543.989807,343.298676 545.509216,347.751617 
	C546.924072,351.898285 549.135437,352.076477 552.684570,350.031616 
	C566.000244,342.359558 580.377502,339.229340 595.710144,340.593109 
	C596.852356,340.694702 598.101501,340.486633 599.263733,343.208099 
	C588.679504,345.518860 578.211243,348.260986 569.164429,356.978180 
	C588.355164,358.677032 605.249146,363.651154 619.562317,375.577179 
	C633.783936,387.426910 644.564514,401.359009 648.617004,420.065979 
	C631.047485,404.391510 610.899475,393.963593 588.210449,387.748260 
	C604.989258,399.095764 618.824707,412.656494 625.145935,432.417206 
	C631.412292,452.006531 629.469849,471.331207 623.433838,490.766907 
	C620.119202,478.337860 617.796753,465.699799 610.728210,454.776001 
	C603.813538,444.089996 596.678101,433.579254 585.962646,425.165039 
	C590.226685,458.231934 579.207947,485.387634 555.919617,508.334808 
	C567.197571,481.392334 562.266357,455.572205 551.723938,430.086914 
	C551.090820,428.556519 549.959106,427.255707 547.570374,426.761688 
	C540.155701,437.077942 531.812500,446.862915 519.617371,452.991699 
	C518.617920,450.053467 520.450073,448.483093 521.593750,446.934601 
	C529.250488,436.567749 531.635071,424.843933 530.847229,412.254089 
	C530.759460,410.852081 530.418030,409.417267 528.650085,409.504211 
	C525.742432,409.647186 522.814880,409.257294 520.623657,412.293884 
	C513.292175,422.453674 506.853699,433.140228 501.139404,444.265015 
	C495.188751,455.849976 490.608734,468.006317 486.646179,480.393585 
	C485.906708,482.705200 485.347748,484.847931 482.458374,485.313934 
	C480.270172,485.666779 479.808289,487.617584 479.274048,489.378784 
	C474.288605,505.812897 470.929596,522.558289 469.253052,539.665894 
	C467.903992,553.431458 467.114105,567.204895 467.324677,581.036377 
	C467.725586,607.372009 470.481537,633.488831 474.739655,659.453125 
	C477.671631,677.330994 481.012054,695.136292 485.051880,712.804077 
	C485.413757,714.386780 485.741730,716.035706 484.938934,718.243774 
	C476.546783,718.243774 468.099915,718.265625 459.653290,718.228333 
	C457.562347,718.219116 457.245636,716.548584 456.512970,714.965454 
	C453.264618,707.946838 454.018494,700.156006 453.306732,692.934692 
	C452.337646,683.103210 450.723907,673.257996 450.481140,663.274719 
	C450.175690,650.715393 448.382599,638.197083 447.394318,625.648193 
	C446.480377,614.042480 445.505524,602.415161 448.268158,590.887268 
	C448.536499,589.767578 448.754791,588.557678 448.624481,587.432739 
	C447.345581,576.390625 450.028107,565.562805 451.094818,554.739136 
	C452.065033,544.894714 454.269714,534.975098 456.222260,525.139648 
	C460.975464,501.196503 469.905212,478.948517 480.798584,456.923523 
z"/>
<path fill="#000000" opacity="1.000000" stroke="none" 
	d="
M328.389465,345.389099 
	C302.373627,374.165100 284.017090,406.808807 273.152191,443.721741 
	C264.979462,471.488220 261.869293,499.850769 263.489014,528.623352 
	C264.773499,551.441040 269.190643,573.794861 276.856110,595.420776 
	C279.180328,601.977905 279.167236,602.092651 272.332153,604.152100 
	C257.511261,608.617859 242.641037,612.920105 227.828766,617.413757 
	C224.852341,618.316711 223.496231,617.860840 222.355637,614.633545 
	C218.295547,603.145691 215.413757,591.370728 212.390320,579.592285 
	C210.819000,573.470886 210.644562,567.210449 208.971329,561.088806 
	C207.310059,555.010864 206.268723,548.398254 206.212708,542.097229 
	C206.113495,530.934326 203.701279,519.860168 204.790085,508.730621 
	C205.837753,498.021851 206.141464,487.270233 207.580231,476.548309 
	C208.515228,469.580597 210.065567,462.658630 210.908936,455.652588 
	C211.981934,446.738953 214.565399,437.937408 217.190445,429.298035 
	C220.439407,418.605286 224.331879,408.115845 228.382019,397.674957 
	C234.470901,381.978394 242.548126,367.396851 251.071045,352.947754 
	C257.490295,342.065063 264.983124,331.986816 272.657776,322.058319 
	C283.252258,308.352539 295.054047,295.561890 308.183899,284.328583 
	C322.257019,272.288330 336.515930,260.292206 352.840393,251.192764 
	C360.965729,246.663605 369.128815,242.199783 377.188416,237.556396 
	C379.699585,236.109650 381.157623,236.656158 382.360474,239.090775 
	C389.810181,254.169159 397.250275,269.252594 404.784698,284.288635 
	C406.227417,287.167816 405.077362,288.457092 402.563568,289.679077 
	C374.349701,303.394714 349.902863,322.151367 328.389465,345.389099 
z"/>
<path fill="#000000" opacity="1.000000" stroke="none" 
	d="
M702.004456,349.996582 
	C679.917664,325.233978 654.657349,305.132599 625.215881,290.446259 
	C622.360413,289.021881 621.976196,287.735748 623.553101,284.668976 
	C630.827942,270.520569 637.703125,256.166901 644.751465,241.901505 
	C646.700134,237.957443 649.590881,237.531067 653.455872,239.328262 
	C664.628235,244.523376 675.063538,251.036469 685.215576,257.876404 
	C703.853699,270.433807 721.186768,284.684418 736.624023,301.089844 
	C780.925659,348.169769 808.308533,403.657410 818.041870,467.553345 
	C825.377991,515.712585 821.384888,563.120544 806.245300,609.507751 
	C804.145142,615.942444 803.413208,616.164551 796.897522,614.198914 
	C782.725708,609.923584 768.492737,605.851013 754.289246,601.680542 
	C752.418457,601.131226 750.312073,601.027344 749.482910,599.804932 
	C777.408386,507.909454 764.196838,424.495117 702.004456,349.996582 
z"/>
<path fill="#000000" opacity="1.000000" stroke="none" 
	d="
M476.890717,821.330444 
	C471.331879,820.637268 466.234131,819.877502 461.114105,819.323730 
	C454.886932,818.650208 453.622314,816.997437 454.945374,810.939087 
	C456.879791,802.081421 457.579376,793.050964 458.818695,784.099243 
	C460.384613,772.788757 461.757141,761.508606 462.206390,750.106750 
	C462.291656,747.942688 463.488434,746.852478 465.703491,746.715576 
	C475.094604,746.135193 484.288086,747.310486 492.875000,751.079102 
	C499.893890,754.159607 503.318024,760.755188 505.768860,767.555054 
	C510.161499,779.742371 510.763092,792.280762 507.610321,804.868225 
	C504.189484,818.526062 496.763733,823.560730 482.784698,822.036438 
	C480.967255,821.838318 479.156006,821.583557 476.890717,821.330444 
M489.762390,795.390015 
	C491.905273,790.302490 489.469421,784.733948 491.385315,779.639832 
	C493.516418,773.973328 492.922516,768.058044 492.358398,762.348755 
	C492.028564,759.010559 490.771332,754.149719 486.638245,753.952759 
	C482.191864,753.740906 482.564819,758.759399 481.446869,761.872986 
	C481.225708,762.488831 481.205048,763.180420 481.120056,763.840698 
	C479.825226,773.899292 478.577881,783.964111 477.227753,794.015198 
	C476.428772,799.963013 475.673523,805.904358 476.203064,811.918701 
	C476.388458,814.023987 477.147247,815.906250 479.408386,816.487122 
	C481.418518,817.003479 482.937744,815.944214 484.138092,814.405396 
	C485.351471,812.849976 486.211609,811.244080 486.831085,809.240662 
	C488.158447,804.948059 488.444611,800.516357 489.762390,795.390015 
z"/>
<path fill="#000000" opacity="1.000000" stroke="none" 
	d="
M732.486450,676.578857 
	C730.466614,675.556091 728.754211,674.815979 727.309998,676.831970 
	C725.859436,678.856812 726.173279,680.836914 727.377441,682.886230 
	C730.219421,687.722595 735.304260,689.859436 739.589233,692.866211 
	C744.532227,696.334534 748.471436,701.560974 756.507141,701.515686 
	C751.122925,708.998352 746.636658,715.233093 742.190918,721.411499 
	C727.593140,708.015747 711.303162,698.241516 696.132568,686.975403 
	C695.335754,686.383789 694.360962,686.025940 693.586792,685.411072 
	C691.652161,683.874634 687.820984,686.687378 687.426331,683.992432 
	C686.959229,680.802734 688.253113,677.239380 689.277649,673.993896 
	C689.824524,672.261658 690.708557,670.688904 690.562378,668.780029 
	C690.374268,666.322327 690.775879,664.055054 693.336487,662.917847 
	C695.978088,661.744751 698.094788,662.855286 700.205017,664.475769 
	C705.073364,668.214294 710.012512,671.863037 714.991699,675.452820 
	C716.136841,676.278442 717.230164,677.537720 718.957031,677.123840 
	C720.460754,675.752869 719.346375,674.396729 719.048096,673.002563 
	C717.805237,667.192383 719.284424,661.791504 723.542908,658.000488 
	C728.250793,653.809387 734.116272,653.099609 739.686279,656.768127 
	C746.754150,661.423340 753.765381,666.187988 760.542908,671.250977 
	C764.160278,673.953247 767.787292,676.422363 772.952332,677.778259 
	C769.028198,684.937927 764.051392,690.770264 759.323975,697.330078 
	C751.455322,688.648193 741.743164,683.207520 732.486450,676.578857 
z"/>
<path fill="#000000" opacity="1.000000" stroke="none" 
	d="
M713.681030,757.367920 
	C709.448425,753.656799 705.040833,752.826599 699.937256,754.317139 
	C694.358398,755.946655 688.707947,757.435303 682.996582,758.483032 
	C673.831970,760.164062 666.664917,756.583557 661.542969,749.009521 
	C656.534363,741.603027 657.276855,733.707703 662.094971,725.668274 
	C665.451721,720.067139 670.084778,716.450989 675.553223,713.491638 
	C680.268799,710.939758 683.557007,707.632446 682.674622,701.656067 
	C682.314087,699.213867 682.724426,696.891785 685.819641,696.356445 
	C688.779175,695.844604 691.611389,696.101257 693.394836,698.836304 
	C695.203186,701.609436 693.203735,703.498169 691.390137,705.274170 
	C690.708435,705.941711 689.885620,706.465027 688.823181,707.290100 
	C710.966370,713.365234 716.566467,731.044495 703.500000,747.683411 
	C706.068237,749.264954 708.443665,748.920471 710.922729,747.552734 
	C712.795471,746.519287 714.652344,745.457886 716.594055,744.520874 
	C720.927002,742.429993 724.428040,742.962036 727.947998,746.121033 
	C731.886230,749.655334 732.039673,754.018372 730.811279,758.510925 
	C727.457336,770.776733 706.906189,784.201172 694.200378,782.627441 
	C687.363403,781.780640 685.234741,779.259155 686.804260,772.585815 
	C687.697815,768.786682 689.130676,764.965515 691.934143,761.925598 
	C695.555298,757.998962 697.134094,758.131836 699.742371,762.674927 
	C700.568787,764.114380 701.312317,765.626343 702.315613,766.935059 
	C706.255676,772.073975 710.206726,772.693054 714.584534,768.974060 
	C717.953064,766.112427 717.728638,762.179932 713.681030,757.367920 
M687.493652,727.008362 
	C684.968323,724.354736 682.370789,721.762573 679.112732,720.016479 
	C677.126160,718.951782 674.888794,718.638672 672.958801,719.994507 
	C670.860962,721.468323 670.951111,723.814819 671.751892,725.886475 
	C675.690125,736.073730 681.956360,744.397522 691.588013,749.900635 
	C693.454773,750.967163 695.437378,751.100098 697.221191,749.802490 
	C699.213623,748.353271 698.691650,746.311646 698.169189,744.342163 
	C696.417786,737.739075 692.862915,732.227295 687.493652,727.008362 
z"/>
<path fill="#000000" opacity="1.000000" stroke="none" 
	d="
M265.421600,628.813538 
	C264.687744,633.306030 264.109192,637.426880 263.331024,641.509644 
	C262.623077,645.223816 260.864075,648.409058 257.728851,650.652832 
	C251.824722,654.878296 247.850159,653.827209 244.655334,647.328186 
	C242.968750,643.897278 241.415878,640.369629 239.389587,637.145203 
	C237.280533,633.789185 238.868347,631.984558 241.718506,631.138123 
	C257.561066,626.433655 271.444641,617.516479 286.217163,610.531738 
	C290.638367,608.441345 295.283325,606.655640 299.266113,603.464294 
	C301.613525,601.583374 304.780884,602.156616 306.370636,605.424072 
	C310.445770,613.799805 315.322540,621.847473 318.252472,630.704041 
	C323.208832,645.686218 314.912628,657.714783 299.278076,660.360352 
	C280.896057,663.470764 270.575653,643.863464 276.780609,630.429993 
	C277.723969,628.387695 279.287231,626.317383 277.184357,623.949524 
	C274.480530,624.141968 274.383118,626.370850 273.892242,628.199341 
	C273.404755,630.015076 274.706665,632.208496 272.601440,633.932495 
	C269.360138,632.125122 270.565948,627.729492 267.933472,625.686157 
	C266.015411,625.704895 266.004059,627.285095 265.421600,628.813538 
M303.118927,636.293579 
	C299.693695,629.549316 297.716034,621.913574 291.307892,617.003784 
	C289.531433,615.642700 287.578491,614.582275 285.370148,615.929688 
	C283.428284,617.114563 282.953491,619.177734 283.366974,621.197144 
	C285.741516,632.795105 291.012848,643.055298 298.387756,652.214844 
	C299.790100,653.956482 302.101501,655.405518 304.540771,653.548401 
	C306.763397,651.856201 308.221313,649.768799 307.030731,646.695190 
	C305.782318,643.472412 304.688751,640.189575 303.118927,636.293579 
z"/>
<path fill="#000000" opacity="1.000000" stroke="none" 
	d="
M598.641663,217.746567 
	C596.251953,214.044510 593.806458,215.919250 591.724976,217.448135 
	C589.455750,219.114899 588.869202,221.655930 590.416016,224.095886 
	C591.920349,226.468658 593.731995,228.679047 595.619385,230.770645 
	C602.272034,238.143051 602.295593,246.408173 598.733704,254.965073 
	C595.080811,263.740173 588.155151,268.544464 578.782593,269.241486 
	C574.878662,269.531799 570.474243,270.318512 566.888306,266.789429 
	C568.589355,264.244446 571.249207,265.306366 573.266357,264.588440 
	C574.779114,264.050049 576.903992,264.170441 577.180176,262.108337 
	C577.464233,259.987152 575.481567,259.439636 573.966614,258.881012 
	C568.952271,257.032104 567.621338,252.785278 566.047913,247.749146 
	C569.335205,248.544632 570.263550,250.929733 571.950317,252.366241 
	C574.293396,254.361603 576.566406,255.331696 579.612610,253.533981 
	C582.619629,251.759369 583.123962,249.329727 582.374329,246.311295 
	C581.512573,242.841782 579.855103,239.725525 577.228577,237.338043 
	C564.942810,226.170502 568.008423,210.743591 585.718994,204.977036 
	C593.165283,202.552521 600.694580,200.778473 608.576721,204.095596 
	C615.818359,207.143188 618.880920,216.219238 613.980652,222.249649 
	C610.977661,225.945267 606.504700,224.165939 602.707397,224.096649 
	C599.205139,224.032761 599.183655,220.713379 598.641663,217.746567 
z"/>
<path fill="#000000" opacity="1.000000" stroke="none" 
	d="
M333.348053,688.814392 
	C340.527130,700.994446 339.050293,714.286072 329.802887,722.893188 
	C320.000702,732.016663 305.193848,733.155762 294.364807,725.458923 
	C285.571503,719.208862 282.616425,710.045227 284.181274,700.036011 
	C285.644226,690.678528 291.660065,684.034973 300.789062,680.585754 
	C313.768433,675.681580 326.742188,679.773743 333.348053,688.814392 
M324.374481,699.822144 
	C327.208160,695.704590 327.638916,689.585449 324.877319,687.495422 
	C321.119263,684.651306 318.040924,687.581787 314.914886,689.278687 
	C314.044006,689.751404 313.233978,690.353210 312.448151,690.963013 
	C304.792114,696.903320 299.102173,704.367920 295.701263,713.427917 
	C294.665161,716.188049 294.095245,719.431335 297.144806,721.600586 
	C299.582489,723.334656 302.259399,723.122498 304.556519,721.333435 
	C312.142761,715.424683 319.226593,709.020020 324.374481,699.822144 
z"/>
<path fill="#000000" opacity="1.000000" stroke="none" 
	d="
M572.527283,784.603882 
	C573.043030,790.971252 571.356873,793.616272 565.993713,795.718933 
	C561.415405,797.513855 556.561279,797.627014 551.788391,798.237122 
	C549.681091,798.506531 547.450989,798.275513 545.636658,800.181519 
	C546.376343,803.047180 548.922974,803.652893 551.171448,804.467468 
	C557.721985,806.840759 564.284729,808.148987 570.864258,804.408447 
	C571.983582,803.772156 573.465698,803.342041 574.574585,804.518555 
	C575.606384,805.613342 575.345886,807.038635 574.891846,808.298462 
	C572.664673,814.477966 568.403809,818.679321 562.237305,820.886963 
	C550.551941,825.070312 536.088745,820.057800 530.262573,809.039978 
	C525.042297,799.167969 525.033447,788.950562 531.539795,779.390808 
	C537.104614,771.214417 545.290955,767.763000 554.811829,768.744751 
	C563.690430,769.660339 570.176819,773.444092 572.527283,784.603882 
M548.326721,793.819580 
	C550.534790,793.165527 552.859070,792.757080 554.916321,791.784180 
	C556.749146,790.917480 559.019348,789.929077 557.765320,786.944946 
	C555.160706,780.747070 544.014282,776.558533 538.065552,779.653076 
	C535.045227,781.224243 533.818665,783.651794 534.653015,787.071289 
	C536.165527,793.270386 540.067322,795.430115 548.326721,793.819580 
z"/>
<path fill="#000000" opacity="1.000000" stroke="none" 
	d="
M604.329407,758.739807 
	C609.997314,774.013733 613.359436,789.709473 620.914062,804.614197 
	C615.421143,806.938965 609.754333,809.070129 603.781006,810.195496 
	C601.075989,810.705017 599.515625,808.847046 598.795654,806.330750 
	C594.319336,790.686707 588.549316,775.476685 583.300537,760.091553 
	C581.893494,755.967163 580.417542,751.956360 575.416199,750.245667 
	C577.945923,745.291687 582.698486,743.417053 586.247681,740.478088 
	C595.547058,732.777649 595.749817,733.032288 599.614685,744.650696 
	C601.136536,749.225464 602.693848,753.788391 604.329407,758.739807 
z"/>
<path fill="#000000" opacity="1.000000" stroke="none" 
	d="
M436.735718,228.788727 
	C436.447632,221.207947 437.389465,214.061020 434.999023,207.047760 
	C433.594757,202.927841 435.345856,199.583817 439.457001,197.674149 
	C442.168274,196.414703 444.888092,195.150238 447.490936,193.686768 
	C450.670624,191.898926 451.806122,193.330185 451.917023,196.325470 
	C452.077118,200.648361 452.072449,204.977173 452.155426,209.303131 
	C452.436066,223.931793 454.999176,238.438995 454.406433,253.123123 
	C454.242737,257.177734 453.797241,261.121643 452.015656,264.754669 
	C447.817841,273.314911 439.061829,274.727631 430.612732,271.094940 
	C430.056824,270.855927 429.498291,270.306488 429.233154,269.759766 
	C427.647064,266.489197 431.408661,256.138702 434.888977,254.763885 
	C437.665131,253.667221 438.482300,251.816589 438.724518,249.046341 
	C439.314148,242.302933 437.589844,235.836365 436.735718,228.788727 
z"/>
<path fill="#000000" opacity="1.000000" stroke="none" 
	d="
M781.811401,630.572815 
	C784.221985,630.682434 786.217468,630.783203 788.212708,630.777954 
	C793.537842,630.763977 794.603333,632.237915 792.973083,637.452881 
	C790.309509,645.973389 783.558350,649.957703 774.720337,647.847656 
	C765.602051,645.670593 757.452087,640.925171 748.757629,637.613403 
	C745.743408,636.465149 742.795410,633.880249 739.568665,638.171875 
	C738.028748,640.220093 736.126282,637.862244 736.117126,635.932129 
	C736.081543,628.433350 733.183044,621.673096 730.939880,614.759094 
	C729.801331,611.249756 731.434998,610.257812 734.254150,610.761414 
	C738.707214,611.557129 742.773804,614.489868 747.626648,613.113525 
	C747.759521,613.075867 748.003540,613.153687 748.088074,613.261841 
	C755.890808,623.237610 769.045410,622.852051 778.769226,629.105530 
	C779.602539,629.641418 780.518555,630.048584 781.811401,630.572815 
z"/>
<path fill="#000000" opacity="1.000000" stroke="none" 
	d="
M336.677490,752.888550 
	C340.953156,743.562988 347.355530,736.105042 353.602264,728.622131 
	C356.264069,725.433533 357.613403,722.760193 355.773499,718.862488 
	C354.264008,715.664734 356.073853,713.797729 358.830963,715.018738 
	C364.498688,717.528687 369.788025,716.605835 375.267334,714.974915 
	C376.199951,714.697266 377.250366,714.721497 378.241455,714.754517 
	C380.166870,714.818726 382.460205,714.039978 383.726440,716.123230 
	C385.098328,718.380310 382.875000,719.736633 381.921234,721.349854 
	C381.248718,722.487549 380.398010,723.530029 379.551544,724.552612 
	C377.808044,726.658813 376.654968,728.663452 379.562897,730.814758 
	C380.526703,731.527710 381.052002,732.693787 380.184174,733.885620 
	C379.279449,735.128113 377.961639,735.559814 376.702362,734.648193 
	C373.743164,732.505859 372.306702,734.358765 370.715057,736.547302 
	C365.048126,744.339355 359.290955,752.065613 353.578522,759.824585 
	C351.858185,762.161194 350.622375,764.671021 351.227814,767.694763 
	C352.109131,772.096436 349.409332,772.000305 346.507843,771.370300 
	C338.618073,769.657166 333.942932,761.030151 336.677490,752.888550 
z"/>
<path fill="#000000" opacity="1.000000" stroke="none" 
	d="
M485.851074,234.159302 
	C486.167847,231.575607 486.845215,229.391708 486.605713,227.313461 
	C485.355164,216.461212 488.973419,205.941299 488.603424,195.167023 
	C488.539032,193.291321 489.744995,192.168167 491.083679,191.092194 
	C494.801727,188.103729 499.600006,188.767456 503.805298,187.391174 
	C505.825409,186.730057 506.441956,189.021942 506.114899,190.808365 
	C502.671326,209.617615 502.613129,228.850693 499.034698,247.626892 
	C498.007202,253.018326 496.001648,258.253967 491.240906,261.717346 
	C488.369446,263.806305 485.278076,264.976196 481.512543,263.236176 
	C489.067719,254.355270 488.578735,252.003830 477.358765,247.030060 
	C485.373047,245.641205 486.081787,240.398132 485.851074,234.159302 
z"/>
<path fill="#000000" opacity="1.000000" stroke="none" 
	d="
M629.207886,768.530334 
	C628.721863,764.367737 626.455627,761.558228 623.456604,759.793640 
	C620.328064,757.952881 620.394165,756.357849 622.525818,754.026489 
	C626.108704,750.107971 629.571472,746.072815 633.284241,742.281982 
	C636.395996,739.104797 638.208984,741.393311 639.652161,744.227905 
	C644.774658,754.288818 649.996643,764.301636 654.935242,774.452271 
	C656.757568,778.197754 659.286133,781.411560 662.110779,785.274475 
	C656.101379,789.279907 649.835693,792.162109 643.548401,794.968811 
	C642.071716,795.628113 641.181580,794.636902 640.721985,793.079651 
	C638.171753,784.439880 633.116699,776.961792 629.207886,768.530334 
z"/>
<path fill="#000000" opacity="1.000000" stroke="none" 
	d="
M407.362854,757.321411 
	C401.308960,769.893250 393.710327,781.307251 389.137268,795.122864 
	C382.981079,792.729919 377.158234,789.406433 371.452728,785.939575 
	C369.254150,784.603699 370.653442,782.557739 371.808441,781.199951 
	C378.367950,773.489014 381.082031,763.629822 386.411377,755.229614 
	C387.609406,753.341248 388.567963,751.196106 388.591827,748.697021 
	C388.622955,745.434143 391.029419,744.071350 393.703369,745.112122 
	C397.156372,746.456116 400.452972,746.018616 403.913086,745.900024 
	C411.196655,745.650391 412.386353,747.608582 409.129822,753.882629 
	C408.593567,754.915710 408.058990,755.949707 407.362854,757.321411 
z"/>
<path fill="#000000" opacity="1.000000" stroke="none" 
	d="
M274.737366,645.713745 
	C275.410065,653.090210 276.010925,660.056519 274.079041,666.893799 
	C272.709473,671.741028 270.052277,675.582397 265.039398,677.376465 
	C261.697662,678.572449 259.187347,677.765442 257.587006,674.531982 
	C255.601227,670.519897 253.661331,666.484985 251.661942,662.479675 
	C250.041977,659.234619 251.199646,657.062744 254.557266,656.786316 
	C261.418488,656.221558 264.580963,651.920532 266.835876,646.130676 
	C267.882080,643.444458 269.131134,640.508240 272.801575,640.326904 
	C274.771515,641.543457 274.100739,643.642334 274.737366,645.713745 
z"/>
<path fill="#000000" opacity="1.000000" stroke="none" 
	d="
M545.822266,212.769409 
	C544.290588,217.777710 540.252625,216.765274 536.966919,217.054977 
	C534.355835,217.285202 531.203003,218.272507 529.175903,216.662582 
	C525.953064,214.102997 530.350037,212.274170 530.810608,209.925430 
	C531.939209,204.170090 534.054993,198.639389 534.788208,192.735901 
	C535.255371,188.974182 537.218506,186.340225 541.763611,186.629028 
	C545.867859,186.889816 550.001709,186.684097 554.942810,186.684097 
	C552.737305,196.063293 548.773132,204.047409 545.822266,212.769409 
z"/>
<path fill="#000000" opacity="1.000000" stroke="none" 
	d="
M402.311127,722.104675 
	C406.733795,719.314209 411.145050,719.654114 415.520050,720.856018 
	C419.120575,721.845154 421.617126,726.657227 421.078583,730.994446 
	C420.401306,736.448486 416.120117,740.942749 411.171844,741.319214 
	C406.483185,741.676086 402.618713,739.930420 399.966980,736.120239 
	C397.509918,732.589783 398.033539,728.921021 400.396606,725.425171 
	C401.037933,724.476440 401.492493,723.401306 402.311127,722.104675 
z"/>
<path fill="#000000" opacity="1.000000" stroke="none" 
	d="
M627.375977,722.292480 
	C632.207031,725.546997 633.235474,730.004272 631.880615,734.796204 
	C630.584717,739.379883 626.826416,741.620544 622.223755,742.352234 
	C617.812195,743.053528 614.408875,741.432495 612.010864,737.691467 
	C609.787842,734.223450 609.997375,728.313965 612.413818,725.606995 
	C616.938782,720.538025 621.210999,719.508850 627.375977,722.292480 
z"/>
</svg>